<?xml version="1.0" encoding="utf-8" standalone="no"?><!-- Generator: Adobe Illustrator 23.0.6, SVG Export Plug-In . SVG Version: 6.00 Build 0)  --><svg xmlns="http://www.w3.org/2000/svg" xmlns:xlink="http://www.w3.org/1999/xlink" id="Logo_RGB" style="enable-background:new 0 0 1297 538;" version="1.1" viewBox="0 0 1297 538" x="0px" xml:space="preserve" y="0px">
<style type="text/css">
	.st0{fill:url(#SVGID_1_);}
	.st1{fill:#FFFFFF;}
</style>
<title>evm_logo_Schutzraum</title>
<linearGradient gradientTransform="matrix(1 0 0 -1 0 537.8055)" gradientUnits="userSpaceOnUse" id="SVGID_1_" x1="0" x2="1296.96" y1="268.8028" y2="268.8028">
	<stop offset="0" style="stop-color:#FE3E12"/>
	<stop offset="0" style="stop-color:#F8522A"/>
	<stop offset="0.1" style="stop-color:#F8522A"/>
	<stop offset="0.5" style="stop-color:#F39100"/>
	<stop offset="0.9" style="stop-color:#F8BE2A"/>
	<stop offset="1" style="stop-color:#F8BE2A"/>
</linearGradient>
<path class="st0" d="M1027.9,0c-71.1-0.1-139.4,28.1-189.7,78.3c-104.9-104.4-274.5-104.4-379.5,0C408.4,28.1,340.1-0.1,269,0  C120.4,0,0,120.5,0,269s120.5,269,269,269c71.1,0.1,139.4-28.1,189.7-78.3c104.9,104.4,274.5,104.4,379.4,0  c50.4,50.2,118.6,78.4,189.7,78.3c148.6,0,269-120.5,269-269S1176.5,0,1027.9,0z"/>
<path class="st1" d="M464.6,419.1c-11.8-4.9-19.4-16.4-19.5-29.1V148.1c0-17.4,14.1-31.5,31.5-31.5s31.5,14.1,31.5,31.5V314  l188.2-188.1c12.3-12.3,32.3-12.3,44.6,0c12.3,12.3,12.3,32.3,0,44.6l-242,241.9C489.8,421.3,476.3,424,464.6,419.1z"/>
<path class="st1" d="M880.8,419.1c-11.8-4.9-19.4-16.4-19.4-29.1V224.1L673.2,412.3c-12.4,12.2-32.4,11.9-44.5-0.5  c-12-12.2-12-31.8,0-44.1l241.9-241.9c12.3-12.3,32.2-12.3,44.5,0c5.9,5.9,9.2,13.9,9.2,22.3V314l188.1-188.1  c12.3-12.3,32.2-12.3,44.5,0c5.9,5.9,9.2,13.9,9.2,22.3V390c0,17.4-14.1,31.5-31.5,31.5s-31.5-14.1-31.5-31.5V224.1L915.2,412.3  C906.1,421.3,892.6,424,880.8,419.1z"/>
<path class="st1" d="M269,426.4c-86.8,0-157.4-70.6-157.4-157.4S182.2,111.7,269,111.7c44.4,0,86.6,18.8,116.5,51.6  c11.3,12.4,10.9,31.6-1,43.5L234.3,356.8c36.5,14.4,78.2,4.7,104.5-24.3c11.7-12.9,31.6-13.8,44.5-2.1s13.8,31.6,2.1,44.5l0,0  C355.6,407.7,313.3,426.4,269,426.4z M269,174.7c-52.1,0-94.4,42.2-94.4,94.3c0,16.2,4.2,32.2,12.1,46.3l128.5-128.5  C301.1,178.9,285.2,174.7,269,174.7z"/>
</svg>