<?xml version="1.0" encoding="UTF-8" standalone="no"?>
<svg
   xmlns:dc="http://purl.org/dc/elements/1.1/"
   xmlns:cc="http://creativecommons.org/ns#"
   xmlns:rdf="http://www.w3.org/1999/02/22-rdf-syntax-ns#"
   xmlns:svg="http://www.w3.org/2000/svg"
   xmlns="http://www.w3.org/2000/svg"
   viewBox="0 0 769.12 770.52002"
   height="770.52002"
   width="769.12"
   xml:space="preserve"
   id="svg2"
   version="1.1"><metadata
     id="metadata8"><rdf:RDF><cc:Work
         rdf:about=""><dc:format>image/svg+xml</dc:format><dc:type
           rdf:resource="http://purl.org/dc/dcmitype/StillImage" /></cc:Work></rdf:RDF></metadata><defs
     id="defs6" /><g
     transform="matrix(1.3333333,0,0,-1.3333333,0,770.52)"
     id="g10"><g
       transform="scale(0.1)"
       id="g12"><path
         id="path14"
         style="fill:#f6ad0d;fill-opacity:1;fill-rule:nonzero;stroke:none"
         d="M 5768.42,2889.48 C 5768.42,1293.67 4477.11,0 2884.21,0 1291.3,0 0,1293.67 0,2889.48 c 0,1595.81 1291.3,2889.47 2884.21,2889.47 1592.9,0 2884.21,-1293.66 2884.21,-2889.47" /><path
         id="path16"
         style="fill:#ffffff;fill-opacity:1;fill-rule:nonzero;stroke:none"
         d="m 4737.11,2143.76 c 0,-299.21 -242.11,-541.77 -540.78,-541.77 -298.67,0 -540.8,242.56 -540.8,541.77 0,299.22 242.13,541.78 540.8,541.78 298.67,0 540.78,-242.56 540.78,-541.78" /><path
         id="path18"
         style="fill:#ffffff;fill-opacity:1;fill-rule:nonzero;stroke:none"
         d="m 1590,1677.38 v 2590 h 1835 v -485 H 2091.96 l -1.55,-620 1090.54,-0.13 4.05,-454.87 -1090.54,0.12 -2.5,-1030.12 H 1590" /></g></g></svg>