<svg version="1.1" id="Layer_1" xmlns:x="ns_extend;" xmlns:i="ns_ai;" xmlns:graph="ns_graphs;" xmlns="http://www.w3.org/2000/svg" xmlns:xlink="http://www.w3.org/1999/xlink" x="0px" y="0px" viewBox="0 0 209.1 191.7" style="enable-background:new 0 0 209.1 191.7;" xml:space="preserve">
 <style type="text/css">
  .st0{fill:#006400;}
 </style>
 <metadata>
  <sfw xmlns="ns_sfw;">
   <slices>
   </slices>
   <sliceSourceBounds bottomLeftOrigin="true" height="191.7" width="209.1" x="4.8" y="4.2">
   </sliceSourceBounds>
  </sfw>
 </metadata>
 <g>
  <g>
   <path class="st0" d="M59.6,186.6c-0.3,0-0.6-0.2-0.8-0.4l-58.6-83c-0.2-0.3-0.2-0.7-0.1-1L42.5,9.9c0.1-0.3,0.5-0.5,0.8-0.6
			l101-9.3c0.3-0.1,0.7,0.1,0.9,0.4l58.6,83c0.2,0.3,0.2,0.7,0.1,1l-42.4,92.3c-0.1,0.3-0.5,0.5-0.8,0.6L59.6,186.6
			C59.6,186.6,59.6,186.6,59.6,186.6z M2.1,102.5L60,184.6l99.9-9.2l42-91.3L144,2l-99.9,9.2L2.1,102.5z M160.6,176.3L160.6,176.3
			L160.6,176.3z">
   </path>
   <path class="st0" d="M59.2,186.4L43,102L42.9,9.7l79,23.3l81.9,51L143,138L59.2,186.4z M43.9,11l0.1,90.9l15.9,83l82.5-47.7
			L202.2,84l-80.8-50.2L43.9,11z">
   </path>
   <g>
    <ellipse class="st0" cx="123.2" cy="33.9" rx="2.9" ry="2.9">
    </ellipse>
    <path class="st0" d="M123.2,39.9c-3.3,0-6.1-2.7-6.1-6.1c0-3.3,2.7-6.1,6.1-6.1c3.3,0,6.1,2.7,6.1,6.1
				C129.3,37.2,126.6,39.9,123.2,39.9z M123.2,33.7l-0.2,0.2c0,0.1,0.1,0.2,0.2,0.2V33.7z">
    </path>
   </g>
   <g>
    <ellipse class="st0" cx="142.9" cy="137.4" rx="2.9" ry="2.9">
    </ellipse>
    <path class="st0" d="M142.9,143.5c-3.3,0-6.1-2.7-6.1-6.1s2.7-6.1,6.1-6.1s6.1,2.7,6.1,6.1S146.2,143.5,142.9,143.5z
				 M142.9,137.3l-0.2,0.2c0,0.1,0.1,0.2,0.2,0.2V137.3z">
    </path>
   </g>
   <g>
    <ellipse class="st0" cx="60.3" cy="185.6" rx="2.9" ry="2.9">
    </ellipse>
    <path class="st0" d="M60.3,191.7c-3.3,0-6.1-2.7-6.1-6.1c0-3.3,2.7-6.1,6.1-6.1c3.3,0,6.1,2.7,6.1,6.1
				C66.4,189,63.6,191.7,60.3,191.7z M60.3,185.5l-0.2,0.2c0,0.1,0.1,0.2,0.2,0.2V185.5z">
    </path>
   </g>
   <g>
    <ellipse class="st0" cx="43.4" cy="102.9" rx="2.9" ry="2.9">
    </ellipse>
    <path class="st0" d="M43.4,108.9c-3.3,0-6.1-2.7-6.1-6.1c0-3.3,2.7-6.1,6.1-6.1s6.1,2.7,6.1,6.1
				C49.5,106.2,46.8,108.9,43.4,108.9z M43.4,102.7l-0.2,0.2c0,0.1,0.1,0.2,0.2,0.2V102.7z">
    </path>
   </g>
   <g>
    <ellipse class="st0" cx="203" cy="84.1" rx="2.9" ry="2.9">
    </ellipse>
    <path class="st0" d="M203,90.2c-3.3,0-6.1-2.7-6.1-6.1c0-3.3,2.7-6.1,6.1-6.1s6.1,2.7,6.1,6.1C209.1,87.5,206.4,90.2,203,90.2z
				 M203,83.9l-0.2,0.2c0,0.1,0.1,0.2,0.2,0.2V83.9z">
    </path>
   </g>
   <g>
    <ellipse class="st0" cx="43.4" cy="10.3" rx="2.9" ry="2.9">
    </ellipse>
    <path class="st0" d="M43.4,16.4c-3.3,0-6.1-2.7-6.1-6.1c0-3.3,2.7-6.1,6.1-6.1s6.1,2.7,6.1,6.1C49.5,13.7,46.8,16.4,43.4,16.4z
				 M43.4,10.2l-0.2,0.2c0,0.1,0.1,0.2,0.2,0.2V10.2z">
    </path>
   </g>
   <path class="st0" d="M160.6,177.3c-0.1,0-0.2,0-0.3-0.1l-77-27.2L0.5,103.5c-0.3-0.2-0.5-0.4-0.5-0.7c0-0.3,0.1-0.6,0.3-0.8
			l62.3-57L144,0.1c0.3-0.2,0.6-0.2,0.9,0c0.3,0.1,0.5,0.4,0.6,0.7l18.2,80.2l-2.1,95.4c0,0.3-0.2,0.6-0.4,0.8
			C161,177.2,160.8,177.3,160.6,177.3z M2.6,102.5l81.4,45.8l75.6,26.7l2.1-93.8L143.8,2.5l-80.1,44L2.6,102.5z">
   </path>
   <path class="st0" d="M143.2,137.8l-0.4-0.1L42.9,103l0.3-0.3l80.1-69.3L143.2,137.8z M43.9,102.8l98.6,34.3L123.1,34.3L43.9,102.8
			z">
   </path>
   <path class="st0" d="M82.9,150.9l-21-106.8l102.7,36.7L82.9,150.9z M64.5,47.1l19.7,100.1l76.6-65.7L64.5,47.1z">
   </path>
   <rect x="52.3" y="7.7" transform="matrix(0.8718 -0.4898 0.4898 0.8718 -6.8637 29.7047)" class="st0" width="2" height="40.5">
   </rect>
   <polygon class="st0" points="61.1,186.2 59.5,185.1 82.7,148.6 84.4,149.6 		">
   </polygon>
   <rect x="181.9" y="62.4" transform="matrix(7.285900e-02 -0.9973 0.9973 7.285900e-02 87.1226 258.9914)" class="st0" width="2" height="40.5">
   </rect>
  </g>
 </g>
</svg>