<?xml version="1.0" encoding="utf-8"?>
<!-- Generator: Adobe Illustrator 19.2.1, SVG Export Plug-In . SVG Version: 6.00 Build 0)  -->
<svg version="1.1" id="layer" xmlns="http://www.w3.org/2000/svg" xmlns:xlink="http://www.w3.org/1999/xlink" x="0px" y="0px"
	 viewBox="0 0 652 652" style="enable-background:new 0 0 652 652;" xml:space="preserve">
<style type="text/css">
	.st0{fill:#FF6B4A;}
</style>
<path class="st0" d="M267.5,183.3v14.3l34.2-3.5h12.6v23.2l-21.2,6.5l-28.8,6.9l4.3,14l27.6-10.6l18.2-5.6v38h-12.6l-34.2-3.5v14.3
	h104.4V263l-34.2,3.5H325v-38l18.1,5.5l27.7,10.6l4.3-14l-28.7-6.9l-21.3-6.5V194h12.6l34.2,3.5v-14.3L267.5,183.3z M236.3,365.9v94
	h12.5v-44.5H303V403h-54.2v-24.6h61v-12.5L236.3,365.9z M395,424.2c0,1-0.3,24.7-24.2,24.7c-22.2,0-24.1-18.9-24.2-24.7v-58.3h-12.5
	v58.3c0,17,9.6,36.9,36.7,36.9c27.1,0,36.7-19.9,36.7-36.9v-58.3H395V424.2z M514.9,395.6c0-14.8-10.3-29.7-33.3-29.7h-40.3v94h12.5
	v-34.6h24.1l21.1,34.6h15.1l-22-35.9C498,422.6,514.9,416.8,514.9,395.6L514.9,395.6z M453.9,412.8v-34.5h27.8
	c7.8,0,20.8,2.3,20.8,17.3c0,14.2-11.3,17.2-20.8,17.2H453.9L453.9,412.8z M184.8,365.9v74.7h-2.7l-44.1-74.7h-16.2v94h12.5v-72.3
	h2.7l42.1,72.3h18.2v-94H184.8z M20.7,365.9v11.6h27.8v70.8H20.7v11.6h68.1v-11.6H61v-70.8h27.8v-11.6H20.7z M586.5,365.8h-15
	l-34.2,94.1h13.1l10.3-28.5h36.4l10.3,28.5h13.2L586.5,365.8z M565.2,419.2l12.3-34h3l12.3,34H565.2z"/>
</svg>
