<?xml version="1.0" encoding="UTF-8" standalone="no"?>
<svg
   xmlns:dc="http://purl.org/dc/elements/1.1/"
   xmlns:cc="http://creativecommons.org/ns#"
   xmlns:rdf="http://www.w3.org/1999/02/22-rdf-syntax-ns#"
   xmlns:svg="http://www.w3.org/2000/svg"
   xmlns="http://www.w3.org/2000/svg"
   viewBox="0 0 257.33334 257.33334"
   height="257.33334"
   width="257.33334"
   xml:space="preserve"
   id="svg2"
   version="1.1"><metadata
     id="metadata8"><rdf:RDF><cc:Work
         rdf:about=""><dc:format>image/svg+xml</dc:format><dc:type
           rdf:resource="http://purl.org/dc/dcmitype/StillImage" /></cc:Work></rdf:RDF></metadata><defs
     id="defs6" /><g
     transform="matrix(1.3333333,0,0,-1.3333333,0,257.33333)"
     id="g10"><g
       transform="scale(0.1)"
       id="g12"><path
         id="path14"
         style="fill:none;stroke:none"
         d="M 0,1927.56 H 1927.56 V 0 H 0 v 1927.56" /><path
         id="path16"
         style="fill:#137bbd;fill-opacity:1;fill-rule:evenodd;stroke:none"
         d="M 243.996,557.477 V 479.313 H 379.164 V 175.602 h 104.219 v 303.711 h 135.164 v 78.164 H 243.996" /><path
         id="path18"
         style="fill:#137bbd;fill-opacity:1;fill-rule:evenodd;stroke:none"
         d="m 1190.13,239.113 c -83.04,0 -120.5,63.512 -120.5,127.02 0,61.066 43.97,127.836 141.67,127.836 32.58,0 63.52,-7.332 90.39,-14.656 l -0.82,81.421 c -36.64,5.7 -79.79,9.77 -110.74,9.77 -145.74,0 -236.939,-78.164 -236.939,-203.555 0,-126.207 91.199,-204.375 236.939,-204.375 17.1,0 53.75,3.258 85.5,5.699 l 26.87,2.442 v 83.058 c -34.2,-8.144 -66.77,-14.66 -112.37,-14.66" /><path
         id="path20"
         style="fill:#137bbd;fill-opacity:1;fill-rule:evenodd;stroke:none"
         d="m 1326.93,557.477 v -78.164 h 126.2 V 175.602 h 104.23 v 303.711 h 126.2 v 78.164 h -356.63" /><path
         id="path22"
         style="fill:#137bbd;fill-opacity:1;fill-rule:evenodd;stroke:none"
         d="M 872.582,175.602 H 982.508 C 927.953,305.066 878.285,434.527 831.871,557.477 H 691.824 C 685.313,542.82 551.777,239.113 519.211,175.602 h 113.176 l 32.57,67.582 h 105.848 l 34.199,77.351 H 697.527 l 63.512,156.336 111.543,-301.269" /><path
         id="path24"
         style="fill:#137bbd;fill-opacity:1;fill-rule:evenodd;stroke:none"
         d="M 1458.02,1764.98 H 462.211 v -995.8 h 995.809 v 995.8" /><path
         id="path26"
         style="fill:#ffffff;fill-opacity:1;fill-rule:evenodd;stroke:none"
         d="M 1155.94,1297.62 H 808.258 L 773.25,1255.27 H 462.211 v -30.12 h 633.479 l 60.25,72.47" /><path
         id="path28"
         style="fill:#ffffff;fill-opacity:1;fill-rule:evenodd;stroke:none"
         d="M 1155.94,1023.22 H 809.074 L 773.25,980.879 H 462.211 v -29.313 h 632.669 l 61.06,71.654" /><path
         id="path30"
         style="fill:#ffffff;fill-opacity:1;fill-rule:evenodd;stroke:none"
         d="m 1120.11,1120.93 35.83,42.34 H 821.289 l -60.25,-71.66 h 696.981 v 29.32 h -337.91" /><path
         id="path32"
         style="fill:#ffffff;fill-opacity:1;fill-rule:evenodd;stroke:none"
         d="m 691.824,1440.92 -61.066,-72.47 h 590.322 l 35.01,42.34 h 201.93 v 30.13 H 691.824" /><path
         id="path34"
         style="fill:#ffffff;fill-opacity:1;fill-rule:evenodd;stroke:none"
         d="m 631.57,1511.76 h 589.51 l 60.25,71.65 H 462.211 v -29.31 h 204.371 l -35.012,-42.34" /></g></g></svg>