<?xml version="1.0" encoding="utf-8"?>
<!-- Generator: Adobe Illustrator 25.4.1, SVG Export Plug-In . SVG Version: 6.00 Build 0)  -->
<svg version="1.0" id="katman_1" xmlns="http://www.w3.org/2000/svg" xmlns:xlink="http://www.w3.org/1999/xlink" x="0px" y="0px"
	 viewBox="0 0 1700 1200" style="enable-background:new 0 0 1700 1200;" xml:space="preserve">
<style type="text/css">
	.st0{fill:#8000DB;}
	.st1{fill:#008298;}
	.st2{fill:#580098;}
	.st3{fill:#98005E;}
	.st4{fill:#FF009E;}
	.st5{fill:#00BEDD;}
	.st6{fill:#FF9900;}
	.st7{fill:#FFE001;}
	.st8{fill:#FFFFFF;}
</style>
<g>
	<g>
		<path class="st0" d="M224.6,612.6c-2.1-12.4-4.8-24.5-10.9-34.1c-8.3-13.1-22.8-22-51.6-22.2l-0.4,16.4c10.2-0.3,20,0.7,28.3,5.9
			c7.1,4.5,13.1,11.9,17.6,24.2c-25-8.5-39.2-5.9-49.3,0.5c-5.2,3.4-9.3,7.9-13.4,12.4l11.4,10.4c0.7-1,1.4-1.8,2-2.6
			c12.2-14.5,26.4-14,41.3-6c-32.4,15.6-37.6,43-35.9,62.8c1.5,0.2,15.9,0,15.9,0c-1.4-19.2,12.3-45,40.8-52.8l4.3-8.7L224.6,612.6z
			"/>
		<path class="st1" d="M437.9,443.1c48-66.6,71.7-99.7,52.7-115.7c-12.6-10.5-29.5-3.1-56.9,17.4c-1,21.9-6.2,53-13.3,94.4
			L437.9,443.1z"/>
		<path class="st2" d="M468.3,842.5h-17.6c-0.4,25.2,0.2,51.1-26.7,59.4c0.9,0.1,1.8,0.2,2.9,0.3c2.9,0.3,5.7,0.1,8.4-0.5
			C468.6,893.2,467.8,867.5,468.3,842.5z"/>
		<path class="st3" d="M487.3,842.5l-18.6-44H486l-14.5-41.6h-24.1l11.2,41.6h-13.4l14.3,44h8.6H487.3z"/>
		<path class="st0" d="M424,901.9c26.9-8.3,26.2-34.1,26.7-59.4h-63.8C386.5,880,400,898.3,424,901.9z"/>
		<path class="st4" d="M445.2,798.5h13.3l-11.2-41.4l-64.9-0.3l-15.1,43l16.4,1.2l-16.4,41.4h92.3L445.2,798.5z"/>
		<path class="st3" d="M310.6,800.1l-17.2-43.6l-24.1-0.1l11.9,42.8h-13.6l14.7,44.4l30.5,0.3l-21.2-44L310.6,800.1z"/>
		<path class="st4" d="M267.5,799.1h13.6l-11.8-42.8l-65.9-0.3l-15.9,44.4l16.8,1.2l-16.8,41.8l94.7,0.2L267.5,799.1z"/>
		<path class="st5" d="M417.8,305.4c-25.9-6.2-40.9,35-78.4,115.7l81,18c7-41.3,12.3-72.5,13.3-94.4
			C434.7,321.4,430.6,308.7,417.8,305.4z"/>
		<path class="st6" d="M467.3,714.5l21.4,1.4l-22.8-45.5h18.7l-16.9-41.3h-14.5h-12.6l15.2,41.3H439l20.5,45.5l-19.2-1.4l20.5,42.6
			l29.2,0.1L467.3,714.5z"/>
		<path class="st1" d="M488.7,586.5l-15.7-44h-30.4l12.9,44h-18.7l16.4,42.7h32.6l-20-42.7H488.7z"/>
		<path class="st7" d="M339.5,421.2C339.4,421.4,339.4,421.2,339.5,421.2l-36,71.6l19.9,0.4l-23.9,49.3h173.2l-22.4-9.5
			c-3.4-1.4-5.4-4.1-4.6-5.9c0.1-0.2,0.2-0.3,0.3-0.4c1-1.5,4.1-1.7,7.2-0.4l1,0.4l15.7,6.7l13.6,5.7v-85.8L339.5,421.2z"/>
		<path class="st8" d="M426.6,502.8c10.9,0,19.8-8.8,19.8-19.9c0-10.9-8.8-19.9-19.8-19.9c-10.9,0-19.8,8.8-19.8,19.9
			C406.9,494,415.8,502.8,426.6,502.8z M426.6,473.1c5.4,0,9.9,4.5,9.9,9.9c0,5.4-4.5,9.9-9.9,9.9c-5.4,0-9.9-4.5-9.9-9.9
			C416.8,477.6,421.2,473.1,426.6,473.1z"/>
		<path d="M427.3,492.9c5.4-0.3,9.5-5,9.3-10.5c-0.3-5.4-5-9.7-10.5-9.3c-5.4,0.3-9.5,5-9.3,10.5C417.1,489,421.9,493.2,427.3,492.9
			z"/>
		<path d="M483.4,542.5V539l-29.3-12.6l-1-0.4c-3.1-1.2-6-1-7.2,0.4c-0.1,0.1-0.2,0.3-0.3,0.4c-0.7,1.8,1.2,4.6,4.6,5.9l22.4,9.5
			h0.4L483.4,542.5z"/>
		<path class="st5" d="M436.9,586.5h18.6l-12.9-44H320.5l-18.5,44h18.6L303,629.1h0.2v0.1c0.4,0,0.9,0,1.2,0h136.1h12.6L436.9,586.5
			z"/>
		<path class="st7" d="M303,629.1l-78.2-10.5l-23.9,48.7h15.9c-1.5,2-3.2,4.3-4.7,6.6l22,20.6l28.5-27l27.8,27.6l28.5-27l28.5,27
			l27.8-27.6l0.9,0.9l27.5,26l28.5-27l10.9,10.7l-3.4-7.6h16.9l-15.2-41.4h-65.4h-72.3h-0.2"/>
		<path class="st7" d="M440.4,714.5l19.2,1.2l-4-8.6l-24-24l-28.3,28.5l-28.5-28.5l-28.3,28.6l-27.8-27.8l-28.5,27l-27.5-27.4
			l-28.3,28.5l-28.3-28.3c-1.8,3.1-12.9,22.4-16.8,29.7l21.7,1.2L191.5,756l269.7,1.2L440.4,714.5z"/>
		<path d="M442.7,678.1l-10.9-10.9l-28.5,27l-28.5-27l-27.7,27.6l-28.5-27l-28.4,27l-27.8-27.6l-28.5,27l-22-20.6
			c-2,3.1-4.3,6.2-6.2,9.8l28.3,28.3l28.3-28.5l27.5,27.4l28.5-27l27.8,27.8l28.5-28.5l28.5,28.5l28.3-28.5l24,24L442.7,678.1z"/>
		<path class="st2" d="M273.4,843.4c-0.4,25.4,0.3,51.4-26.7,59.8c1.6,0.2,3.3,0.4,5,0.5c1.4,0.1,3,0,4.3-0.3c1.2-0.3,2.6-0.7,3.7-1
			c1.7-0.5,3.5-1,5-1.6c1-0.4,2-0.9,3.1-1.2c0.7-0.3,1.2-0.7,1.8-1c0.6-0.3,1.2-0.7,1.7-1c0.9-0.5,1.7-1,2.6-1.6
			c0.5-0.3,1-0.7,1.5-1c1-0.9,2.1-1.7,3.1-2.6c1-1,1.9-2,2.9-3.1c0.3-0.4,0.7-0.7,1-1.2c0.4-0.5,0.7-1,1-1.6c0.7-1,1.2-2.2,1.8-3.3
			c0.3-0.5,0.5-1.2,0.9-1.7c0.1-0.3,0.3-0.7,0.4-1c0.2-0.4,0.3-1,0.5-1.4c0.1-0.2,0.2-0.4,0.2-0.7c0.3-1,0.7-1.9,0.9-3
			c0-0.2,0.1-0.4,0.1-0.5c0.2-0.7,0.3-1.2,0.4-1.9c0-0.1,0.1-0.3,0.1-0.4c0.1-0.7,0.3-1.5,0.4-2.3c0.1-0.4,0.1-0.9,0.2-1.2
			c0.1-0.4,0.1-1,0.2-1.4c0.3-2.2,0.5-4.3,0.7-6.6c0.2-2.8,0.3-5.4,0.3-8.2c0.1-3,0.1-5.9,0.2-8.8L273.4,843.4z"/>
		<path class="st0" d="M209.5,843.4c-0.1,7.3,0.3,14,1.2,19.9c0.3,2.4,0.7,4.5,1.2,6.6c0.3,1.4,0.7,2.8,1,4
			c5.5,17.6,17,26.9,33.5,29.4c27-8.4,26.2-34.4,26.7-59.8h-63.7V843.4z"/>
		<path class="st3" d="M547.7,499c-6.5,16.4-27.9,29.7-64.6,32.9v7.1v3.5c2.6-0.1,4.8-0.3,7.2-0.4c2.9-0.2,5.5-0.5,8.2-1
			c2.4-0.3,4.7-0.7,6.9-1.2c9.9-2,18.1-5.1,24.7-9c1.4-0.9,2.9-1.7,4-2.6c0.7-0.4,1.2-0.9,1.8-1.4c1.7-1.4,3.4-3,4.8-4.5
			c1-1,1.7-2,2.6-3.2c1.8-2.8,3.3-5.5,4.1-8.4C548.5,507.1,548.6,503.1,547.7,499z"/>
		<path class="st4" d="M491.3,455.2c-2.6-0.7-5.1-1.4-7.9-1.9v22.3v22.3V532c36.6-3.3,58-16.7,64.6-32.9
			C544.6,482.3,525.8,464.8,491.3,455.2z"/>
	</g>
	<g>
		<path d="M839.7,531.4c12.6,11,18.9,26.2,18.9,45.8c0,19.5-6.2,34.7-18.9,45.8c-12.6,11-30,16.6-52.1,16.6h-40.7V708h-40.4V515
			h81.1C809.8,515,827.1,520.5,839.7,531.4z M817.6,577.2c0-20.3-12.1-30.4-36.2-30.4h-34.5v60.9h34.5
			C805.5,607.7,817.6,597.5,817.6,577.2z"/>
		<path d="M877.8,519.4c0-14.5,8.3-21.7,24.9-21.7c16.6,0,24.9,7.2,24.9,21.7c0,14.2-8.3,21.4-24.9,21.4S877.8,533.5,877.8,519.4z
			 M922.6,708h-40V561.7h40V708z"/>
		<path d="M1081.6,572.5c9.7,9.1,14.5,22.3,14.5,39.5v96h-40v-84.6c0-22-8.8-33-26.4-33c-9.3,0-17.2,3.3-23.7,9.8
			c-6.5,6.6-9.7,16.7-9.7,30.3V708h-40V561.7h36l1.5,27.2c4.7-10,11.2-17.4,19.9-22.5c8.6-5.1,18.5-7.6,29.9-7.6
			C1059.2,558.9,1071.9,563.4,1081.6,572.5z"/>
		<path d="M1271.5,682l-2.3,24.9c-5.1,2.6-11.4,3.8-19,3.8c-8.6-0.2-15.9-2-22.1-5.5c-6.2-3.5-10.3-8.6-12.4-15.2
			c-4.5,6.6-11,11.8-19.5,15.5c-8.6,3.7-17.6,5.5-26.9,5.5c-15.2,0-27.1-3.4-35.6-10.2c-8.5-6.8-12.8-16.6-12.8-29.2
			c0-10.7,3.5-19.5,10.4-26.4c6.9-6.9,17-11.8,30.3-14.5l50.4-10.2v-5.5c0-8.2-2.3-14.7-7.1-19.5s-11-7.1-18.9-7.1
			c-16,0-26.4,7.9-31,24l-34.2-10.5c3.5-13.3,10.9-23.7,22.2-31.4c11.2-7.6,26.2-11.4,44.7-11.4c19.7,0,35.2,4.7,46.9,14
			c11.5,9.3,17.2,22.6,17.2,40.2v59c0,7.4,3.5,11.2,10.5,11.2C1265.5,683.5,1268.7,682.9,1271.5,682z M1202.7,675.9
			c6.2-4.5,9.3-11.7,9.3-21.7v-9l-30.7,6.2c-7.2,1.4-12.4,3.2-15.5,5.5c-3.1,2.3-4.7,5.9-4.7,10.9c0,4.7,1.8,8.3,5.3,10.9
			c3.5,2.6,7.9,4,13.1,4C1188.8,682.6,1196.6,680.3,1202.7,675.9z"/>
		<path d="M1388.8,699c-4.9,3.7-10.7,6.6-17.8,8.8c-6.9,2.1-14.2,3.2-22.1,3.2c-33.1,0-49.7-14.8-49.7-44.2v-75.2h-26.9v-29.9h26.9
			V528l40-11.2v44.7h46.9v30h-46.9v68.8c0,13.5,6.7,20.2,20.2,20.2c8.8,0,16.4-2.8,22.8-8.2L1388.8,699z"/>
		<path d="M1555,682l-2.3,24.9c-5.1,2.6-11.4,3.8-19,3.8c-8.6-0.2-15.9-2-22.1-5.5c-6.2-3.5-10.3-8.6-12.4-15.2
			c-4.5,6.6-11,11.8-19.5,15.5c-8.6,3.7-17.6,5.5-26.9,5.5c-15.2,0-27.1-3.4-35.6-10.2c-8.5-6.8-12.8-16.6-12.8-29.2
			c0-10.7,3.5-19.5,10.4-26.4c6.9-6.9,17-11.8,30.3-14.5l50.4-10.2v-5.5c0-8.2-2.3-14.7-7.1-19.5s-11-7.1-18.9-7.1
			c-16,0-26.4,7.9-31,24l-34.2-10.5c3.5-13.3,10.9-23.7,22.2-31.4c11.2-7.6,26.2-11.4,44.7-11.4c19.7,0,35.2,4.7,46.9,14
			c11.5,9.3,17.2,22.6,17.2,40.2v59c0,7.4,3.5,11.2,10.5,11.2C1549,683.5,1552.1,682.9,1555,682z M1486.2,675.9
			c6.2-4.5,9.3-11.7,9.3-21.7v-9l-30.7,6.2c-7.2,1.4-12.4,3.2-15.5,5.5c-3.1,2.3-4.7,5.9-4.7,10.9c0,4.7,1.8,8.3,5.3,10.9
			c3.5,2.6,7.9,4,13.1,4C1472.2,682.6,1480,680.3,1486.2,675.9z"/>
	</g>
</g>
</svg>
