<?xml version="1.0" encoding="utf-8"?>
<!-- Generator: Adobe Illustrator 26.0.3, SVG Export Plug-In . SVG Version: 6.00 Build 0)  -->
<svg version="1.0" id="katman_1" xmlns="http://www.w3.org/2000/svg" xmlns:xlink="http://www.w3.org/1999/xlink" x="0px" y="0px"
	 viewBox="0 0 800 600" style="enable-background:new 0 0 800 600;" xml:space="preserve">
<style type="text/css">
	.st0{fill:#10151B;}
	.st1{clip-path:url(#SVGID_00000002384704023301531680000014573934012776157864_);}
	.st2{fill-rule:evenodd;clip-rule:evenodd;fill:#00A4D6;}
</style>
<path class="st0" d="M350.3,299.6c0,2.9-0.3,5.7-0.9,8.4c-0.6,2.7-1.5,5.1-2.6,7.5c-1.1,2.3-2.5,4.5-4.1,6.4
	c-1.6,1.9-3.5,3.6-5.6,5.1l16.7,18.1h-10.1c-1.5,0-2.8-0.2-4-0.6c-1.2-0.4-2.2-1.1-3.2-2.2l-9.6-10.6c-1.5,0.4-3.1,0.7-4.8,1
	c-1.6,0.2-3.3,0.3-5,0.3c-5,0-9.5-0.8-13.6-2.5c-4.1-1.7-7.6-4-10.6-7c-2.9-3-5.2-6.5-6.8-10.6c-1.6-4.1-2.4-8.6-2.4-13.4
	c0-4.8,0.8-9.2,2.4-13.3c1.6-4.1,3.9-7.7,6.8-10.6c2.9-3,6.5-5.3,10.6-7c4.1-1.7,8.7-2.5,13.6-2.5c5,0,9.5,0.8,13.6,2.5
	c4.1,1.7,7.6,4,10.5,7c2.9,3,5.2,6.5,6.8,10.6C349.5,290.4,350.3,294.8,350.3,299.6z M337.7,299.6c0-3.6-0.5-6.8-1.5-9.6
	c-0.9-2.9-2.3-5.3-4.1-7.3c-1.8-2-4-3.5-6.5-4.6c-2.5-1.1-5.4-1.6-8.6-1.6s-6.1,0.5-8.7,1.6c-2.6,1.1-4.8,2.6-6.6,4.6
	c-1.8,2-3.2,4.4-4.1,7.3c-1,2.8-1.5,6.1-1.5,9.6c0,3.6,0.5,6.8,1.5,9.7c1,2.8,2.3,5.3,4.1,7.2c1.8,2,4,3.5,6.6,4.5
	c2.6,1.1,5.5,1.6,8.7,1.6s6.1-0.5,8.6-1.6c2.6-1.1,4.8-2.6,6.5-4.5c1.8-2,3.2-4.4,4.1-7.2C337.2,306.4,337.7,303.2,337.7,299.6z"/>
<path class="st0" d="M366,285.9v29.5c0,2.8,0.7,5,2,6.6c1.3,1.5,3.3,2.3,6,2.3c1.9,0,3.8-0.4,5.5-1.3c1.7-0.9,3.3-2.1,4.8-3.6v-33.6
	h11.2v46.4h-6.9c-1.5,0-2.4-0.7-2.9-2l-0.8-3.7c-1,1-2,1.9-3,2.7c-1,0.8-2.1,1.5-3.3,2c-1.2,0.5-2.4,1-3.8,1.3
	c-1.3,0.3-2.8,0.5-4.3,0.5c-2.5,0-4.8-0.4-6.8-1.3c-1.9-0.9-3.6-2.1-4.9-3.7c-1.3-1.6-2.3-3.4-3-5.6c-0.7-2.2-1-4.6-1-7.2v-29.5H366
	z"/>
<path class="st0" d="M415.7,285.9v46.4h-11.2v-46.4H415.7z M417.4,272.3c0,1-0.2,1.9-0.6,2.7c-0.4,0.8-0.9,1.6-1.6,2.2
	c-0.6,0.6-1.4,1.1-2.3,1.5c-0.9,0.4-1.8,0.5-2.8,0.5c-1,0-1.9-0.2-2.8-0.5c-0.8-0.4-1.6-0.9-2.2-1.5c-0.6-0.6-1.2-1.4-1.5-2.2
	c-0.4-0.8-0.5-1.8-0.5-2.7c0-1,0.2-1.9,0.5-2.8c0.4-0.9,0.9-1.6,1.5-2.3c0.6-0.6,1.4-1.1,2.2-1.5c0.9-0.4,1.8-0.6,2.8-0.6
	c1,0,1.9,0.2,2.8,0.6c0.9,0.4,1.6,0.9,2.3,1.5c0.7,0.6,1.2,1.4,1.6,2.3C417.2,270.4,417.4,271.3,417.4,272.3z"/>
<path class="st0" d="M457.6,295.7c-0.3,0.4-0.7,0.8-1,1c-0.3,0.2-0.8,0.4-1.4,0.4c-0.6,0-1.1-0.2-1.7-0.5c-0.5-0.4-1.2-0.8-2-1.2
	c-0.8-0.5-1.7-0.8-2.7-1.2c-1-0.4-2.3-0.5-3.9-0.5c-2,0-3.7,0.4-5.2,1.1c-1.5,0.7-2.7,1.7-3.7,3c-1,1.3-1.7,2.9-2.2,4.8
	c-0.5,1.9-0.7,4-0.7,6.4c0,2.5,0.3,4.7,0.8,6.6c0.5,1.9,1.3,3.6,2.3,4.9c1,1.3,2.2,2.3,3.6,3c1.4,0.7,3,1,4.8,1
	c1.8,0,3.2-0.2,4.3-0.6c1.1-0.5,2.1-0.9,2.8-1.4c0.8-0.5,1.4-1,2-1.4c0.6-0.5,1.2-0.7,1.9-0.7c0.9,0,1.6,0.3,2,1l3.2,4.1
	c-1.2,1.4-2.6,2.7-4,3.7c-1.5,1-3,1.8-4.5,2.4c-1.5,0.6-3.2,1-4.8,1.2c-1.7,0.2-3.3,0.4-5,0.4c-2.9,0-5.6-0.5-8.1-1.6
	c-2.5-1.1-4.8-2.7-6.7-4.7c-1.9-2.1-3.4-4.6-4.5-7.5c-1.1-3-1.6-6.4-1.6-10.2c0-3.4,0.5-6.6,1.5-9.5c1-2.9,2.5-5.4,4.4-7.6
	c1.9-2.1,4.3-3.8,7.1-5c2.8-1.2,6.1-1.8,9.7-1.8c3.5,0,6.5,0.6,9.1,1.7c2.6,1.1,5,2.7,7.1,4.8L457.6,295.7z"/>
<path class="st0" d="M475.9,265.1v38.5h2.1c0.8,0,1.3-0.1,1.8-0.3c0.4-0.2,0.9-0.6,1.4-1.2l11.6-14.3c0.5-0.6,1.1-1.1,1.6-1.4
	c0.6-0.4,1.3-0.5,2.3-0.5h10.3l-14.5,17.2c-0.5,0.6-1,1.2-1.6,1.8c-0.5,0.5-1.1,1-1.8,1.4c0.6,0.5,1.2,1,1.7,1.6
	c0.5,0.6,1,1.3,1.5,1.9l15.6,22.5h-10.1c-0.9,0-1.6-0.2-2.2-0.5c-0.6-0.3-1.2-0.8-1.6-1.5l-11.9-17.6c-0.5-0.7-0.9-1.1-1.4-1.4
	c-0.5-0.2-1.1-0.3-2-0.3h-2.5v21.3h-11.2v-67.3H475.9z"/>
<path class="st0" d="M518.1,266.9c0.5,0,1,0,1.4,0.1c0.4,0,0.7,0.1,1,0.3c0.3,0.1,0.6,0.3,0.9,0.6c0.3,0.2,0.6,0.6,0.9,1l34.5,43.8
	c-0.1-1.1-0.2-2.1-0.3-3.1c0-1,0-2,0-2.9v-39.8h10.8v65.5h-6.3c-1,0-1.8-0.2-2.4-0.5c-0.6-0.3-1.3-0.8-1.9-1.6l-34.4-43.6
	c0.1,1,0.2,1.9,0.2,2.9c0.1,0.9,0.1,1.8,0.1,2.6v40.2h-10.8v-65.5H518.1z"/>
<path class="st0" d="M596.1,285.2c3.5,0,6.6,0.6,9.5,1.7c2.8,1.1,5.3,2.7,7.3,4.8c2,2.1,3.5,4.6,4.6,7.5c1.1,3,1.6,6.3,1.6,9.9
	c0,3.7-0.5,7-1.6,10c-1.1,3-2.6,5.5-4.6,7.6c-2,2.1-4.4,3.7-7.3,4.8c-2.8,1.1-6,1.7-9.5,1.7c-3.5,0-6.7-0.6-9.5-1.7
	c-2.8-1.1-5.3-2.7-7.3-4.8c-2-2.1-3.6-4.6-4.7-7.6c-1.1-3-1.6-6.3-1.6-10c0-3.7,0.5-7,1.6-9.9c1.1-3,2.7-5.5,4.7-7.5
	c2-2.1,4.5-3.6,7.3-4.8C589.4,285.7,592.6,285.2,596.1,285.2z M596.1,324.4c3.9,0,6.7-1.3,8.6-3.9c1.9-2.6,2.8-6.4,2.8-11.4
	c0-5-0.9-8.8-2.8-11.5c-1.8-2.6-4.7-3.9-8.6-3.9c-3.9,0-6.9,1.3-8.7,4c-1.9,2.6-2.8,6.4-2.8,11.4c0,5,0.9,8.8,2.8,11.4
	C589.2,323.1,592.1,324.4,596.1,324.4z"/>
<path class="st0" d="M657,332.3c-1.5,0-2.4-0.7-2.9-2l-0.9-4.5c-1,1.1-2,2.1-3,2.9s-2.2,1.6-3.5,2.3c-1.2,0.6-2.5,1.1-4,1.4
	c-1.4,0.4-2.9,0.5-4.5,0.5c-2.5,0-4.9-0.5-7-1.6c-2.1-1.1-4-2.6-5.5-4.6c-1.5-2-2.7-4.5-3.5-7.5c-0.8-3-1.2-6.3-1.2-10.1
	c0-3.4,0.5-6.6,1.4-9.6c0.9-3,2.3-5.5,4-7.7c1.8-2.2,3.9-3.9,6.3-5.1c2.5-1.2,5.2-1.9,8.3-1.9c2.6,0,4.8,0.4,6.7,1.3
	c1.8,0.8,3.5,1.9,5,3.3v-24.5h11.2v67.3H657z M642.1,324.1c2.3,0,4.3-0.5,6-1.4c1.6-1,3.2-2.3,4.6-4.1v-20.8
	c-1.3-1.5-2.7-2.6-4.2-3.3c-1.5-0.6-3.1-1-4.8-1c-1.7,0-3.2,0.3-4.6,1c-1.4,0.6-2.5,1.6-3.5,2.9c-0.9,1.3-1.7,2.9-2.2,4.9
	c-0.5,2-0.8,4.3-0.8,7c0,2.7,0.2,5,0.6,6.9c0.5,1.9,1.1,3.4,1.9,4.6c0.8,1.2,1.8,2,3,2.6C639.3,323.9,640.6,324.1,642.1,324.1z"/>
<path class="st0" d="M691.7,285.2c2.9,0,5.6,0.5,8.1,1.4c2.5,0.9,4.6,2.3,6.4,4.1c1.8,1.8,3.2,4,4.2,6.6c1,2.6,1.5,5.6,1.5,8.9
	c0,0.8,0,1.6-0.1,2.1c-0.1,0.5-0.2,1-0.4,1.3c-0.2,0.3-0.4,0.5-0.8,0.7c-0.3,0.1-0.8,0.2-1.3,0.2h-28.8c0.3,4.8,1.6,8.3,3.9,10.5
	c2.2,2.2,5.2,3.3,8.9,3.3c1.8,0,3.4-0.2,4.7-0.6c1.3-0.4,2.5-0.9,3.5-1.4c1-0.5,1.9-1,2.6-1.4c0.8-0.4,1.5-0.6,2.2-0.6
	c0.5,0,0.8,0.1,1.2,0.3c0.3,0.2,0.6,0.4,0.9,0.8l3.3,4.1c-1.2,1.4-2.6,2.7-4.2,3.7c-1.5,1-3.2,1.8-4.9,2.4c-1.7,0.6-3.4,1-5.1,1.2
	c-1.7,0.2-3.4,0.4-5,0.4c-3.2,0-6.3-0.5-9-1.6c-2.8-1.1-5.2-2.7-7.3-4.8c-2.1-2.1-3.7-4.7-4.9-7.8c-1.2-3.1-1.8-6.7-1.8-10.8
	c0-3.2,0.5-6.1,1.5-8.9c1-2.8,2.5-5.2,4.4-7.3c1.9-2.1,4.3-3.7,7-4.9C685.1,285.8,688.2,285.2,691.7,285.2z M691.9,293.2
	c-3.3,0-5.8,0.9-7.7,2.8c-1.8,1.8-3,4.5-3.5,7.8h21.1c0-1.4-0.2-2.8-0.6-4.1c-0.4-1.3-1-2.4-1.8-3.4c-0.8-1-1.8-1.7-3.1-2.3
	C695.1,293.5,693.6,293.2,691.9,293.2z"/>
<g>
	<defs>
		<rect id="SVGID_1_" x="87.8" y="221.2" width="156.7" height="156.7"/>
	</defs>
	<clipPath id="SVGID_00000072963922179869898400000012718918569721634744_">
		<use xlink:href="#SVGID_1_"  style="overflow:visible;"/>
	</clipPath>
	<g style="clip-path:url(#SVGID_00000072963922179869898400000012718918569721634744_);">
		<path class="st2" d="M166.1,348.6c13.3,0,25.4-5.3,34.2-13.9c0.2-0.2,0.6-0.2,0.9,0l20.3,20.3l21.1,21.1c0.5,0.5,0,1.2-0.6,1
			l-33.7-11.2c-0.2-0.1-0.4,0-0.5,0.1c-12.1,7.6-26.4,12-41.7,12c-43.3,0-78.3-35.1-78.3-78.3c0-43.3,35.1-78.3,78.3-78.3
			s78.3,35.1,78.3,78.3c0,18.5-6.4,35.5-17.1,48.9c-0.2,0.3-0.6,0.3-0.9,0l-41.4-41.4c-0.5-0.5,0-1.2,0.6-1l26.3,8.8
			c0.3,0.1,0.7-0.1,0.8-0.4c1.5-4.7,2.3-9.7,2.3-14.9c0-27-21.9-49-49-49s-49,21.9-49,49C117.1,326.6,139.1,348.6,166.1,348.6z"/>
	</g>
</g>
</svg>
